<svg width="64" height="64" viewBox="0 0 64 64" fill="none" xmlns="http://www.w3.org/2000/svg">
  <g filter="url(#shadow)">
    <path
      d="M32 22c-5.523 0-10 4.477-10 10 0 5.522 4.477 10 10 10s10-4.478 10-10c0-5.523-4.477-10-10-10Zm0 16a6 6 0 1 1 0-12 6 6 0 0 1 0 12Z"
      fill="#1F6F63"
    />
    <path
      d="M12 18a6 6 0 0 1 6-6h6a4 4 0 0 1 0 8h-6v6a4 4 0 0 1-8 0v-8Zm34-6h6a6 6 0 0 1 6 6v8a4 4 0 0 1-8 0v-6h-6a4 4 0 1 1 0-8Zm-28 34h6a4 4 0 1 1 0 8h-6a6 6 0 0 1-6-6v-8a4 4 0 1 1 8 0v6Zm28 0v-6a4 4 0 1 1 8 0v8a6 6 0 0 1-6 6h-6a4 4 0 1 1 0-8h4Z"
      fill="#FF5A1F"
    />
    <path
      d="M18 30h28a2 2 0 0 1 0 4H18a2 2 0 0 1 0-4Z"
      fill="#0F3F38"
    />
  </g>
  <defs>
    <filter id="shadow" x="4" y="8" width="56" height="48" filterUnits="userSpaceOnUse" color-interpolation-filters="sRGB">
      <feFlood flood-opacity="0" result="BackgroundImageFix" />
      <feColorMatrix in="SourceAlpha" type="matrix" values="0 0 0 0 0 0 0 0 0 0 0 0 0 0 0 0 0 0 127 0" result="hardAlpha" />
      <feOffset dy="2" />
      <feGaussianBlur stdDeviation="3" />
      <feColorMatrix type="matrix" values="0 0 0 0 0 0 0 0 0 0 0 0 0 0 0 0 0 0 0.2 0" />
      <feBlend mode="normal" in2="BackgroundImageFix" result="effect1_dropShadow" />
      <feBlend mode="normal" in="SourceGraphic" in2="effect1_dropShadow" result="shape" />
    </filter>
  </defs>
</svg>